<mxfile host="Electron" modified="2024-03-30T09:59:17.200Z" agent="Mozilla/5.0 (Windows NT 10.0; Win64; x64) AppleWebKit/537.36 (KHTML, like Gecko) draw.io/24.1.0 Chrome/120.0.6099.109 Electron/28.1.0 Safari/537.36" etag="uDz-xzAYWckWsrU4R5kE" version="24.1.0" type="device">
  <diagram name="Page-1" id="OwccG9VL-L9x1aARAfLF">
    <mxGraphModel dx="1434" dy="837" grid="1" gridSize="10" guides="1" tooltips="1" connect="1" arrows="1" fold="1" page="1" pageScale="1" pageWidth="850" pageHeight="1100" math="0" shadow="0">
      <root>
        <mxCell id="0" />
        <mxCell id="1" parent="0" />
        <mxCell id="zhqAr8tG6hQk_ShNSXF1-3" value="" style="edgeStyle=orthogonalEdgeStyle;rounded=0;orthogonalLoop=1;jettySize=auto;html=1;" edge="1" parent="1" source="zhqAr8tG6hQk_ShNSXF1-1" target="zhqAr8tG6hQk_ShNSXF1-2">
          <mxGeometry relative="1" as="geometry" />
        </mxCell>
        <mxCell id="zhqAr8tG6hQk_ShNSXF1-1" value="Starting the app" style="ellipse;whiteSpace=wrap;html=1;" vertex="1" parent="1">
          <mxGeometry x="173" y="50" width="120" height="40" as="geometry" />
        </mxCell>
        <mxCell id="zhqAr8tG6hQk_ShNSXF1-5" value="" style="edgeStyle=orthogonalEdgeStyle;rounded=0;orthogonalLoop=1;jettySize=auto;html=1;" edge="1" parent="1" source="zhqAr8tG6hQk_ShNSXF1-2" target="zhqAr8tG6hQk_ShNSXF1-4">
          <mxGeometry relative="1" as="geometry" />
        </mxCell>
        <mxCell id="zhqAr8tG6hQk_ShNSXF1-2" value="Getting last active/inactive orders" style="rounded=1;whiteSpace=wrap;html=1;" vertex="1" parent="1">
          <mxGeometry x="168" y="150" width="130" height="60" as="geometry" />
        </mxCell>
        <mxCell id="zhqAr8tG6hQk_ShNSXF1-7" value="" style="edgeStyle=orthogonalEdgeStyle;rounded=0;orthogonalLoop=1;jettySize=auto;html=1;" edge="1" parent="1" source="zhqAr8tG6hQk_ShNSXF1-4" target="zhqAr8tG6hQk_ShNSXF1-6">
          <mxGeometry relative="1" as="geometry" />
        </mxCell>
        <mxCell id="zhqAr8tG6hQk_ShNSXF1-4" value="Sync with DB" style="rounded=1;whiteSpace=wrap;html=1;" vertex="1" parent="1">
          <mxGeometry x="173" y="270" width="120" height="60" as="geometry" />
        </mxCell>
        <mxCell id="zhqAr8tG6hQk_ShNSXF1-14" value="" style="edgeStyle=orthogonalEdgeStyle;rounded=0;orthogonalLoop=1;jettySize=auto;html=1;" edge="1" parent="1" source="zhqAr8tG6hQk_ShNSXF1-6" target="zhqAr8tG6hQk_ShNSXF1-13">
          <mxGeometry relative="1" as="geometry" />
        </mxCell>
        <mxCell id="zhqAr8tG6hQk_ShNSXF1-6" value="Creating/updating trade records" style="rounded=1;whiteSpace=wrap;html=1;" vertex="1" parent="1">
          <mxGeometry x="173" y="390" width="120" height="60" as="geometry" />
        </mxCell>
        <mxCell id="zhqAr8tG6hQk_ShNSXF1-8" value="" style="shape=flexArrow;endArrow=classic;html=1;rounded=0;" edge="1" parent="1">
          <mxGeometry width="50" height="50" relative="1" as="geometry">
            <mxPoint x="350" y="210" as="sourcePoint" />
            <mxPoint x="350" y="410" as="targetPoint" />
          </mxGeometry>
        </mxCell>
        <mxCell id="zhqAr8tG6hQk_ShNSXF1-9" value="DB flow for&lt;div&gt;statistics&lt;/div&gt;" style="edgeLabel;html=1;align=center;verticalAlign=middle;resizable=0;points=[];" vertex="1" connectable="0" parent="zhqAr8tG6hQk_ShNSXF1-8">
          <mxGeometry x="-0.2667" y="2" relative="1" as="geometry">
            <mxPoint x="38" y="17" as="offset" />
          </mxGeometry>
        </mxCell>
        <mxCell id="zhqAr8tG6hQk_ShNSXF1-12" value="" style="edgeStyle=orthogonalEdgeStyle;rounded=0;orthogonalLoop=1;jettySize=auto;html=1;" edge="1" parent="1" source="zhqAr8tG6hQk_ShNSXF1-10" target="zhqAr8tG6hQk_ShNSXF1-11">
          <mxGeometry relative="1" as="geometry" />
        </mxCell>
        <mxCell id="zhqAr8tG6hQk_ShNSXF1-10" value="Starting a trade" style="ellipse;whiteSpace=wrap;html=1;" vertex="1" parent="1">
          <mxGeometry x="563" y="50" width="120" height="40" as="geometry" />
        </mxCell>
        <mxCell id="zhqAr8tG6hQk_ShNSXF1-16" value="" style="edgeStyle=orthogonalEdgeStyle;rounded=0;orthogonalLoop=1;jettySize=auto;html=1;" edge="1" parent="1" source="zhqAr8tG6hQk_ShNSXF1-11" target="zhqAr8tG6hQk_ShNSXF1-15">
          <mxGeometry relative="1" as="geometry" />
        </mxCell>
        <mxCell id="zhqAr8tG6hQk_ShNSXF1-11" value="Sending orders" style="rounded=1;whiteSpace=wrap;html=1;" vertex="1" parent="1">
          <mxGeometry x="563" y="140" width="120" height="60" as="geometry" />
        </mxCell>
        <mxCell id="zhqAr8tG6hQk_ShNSXF1-13" value="" style="shape=cylinder3;whiteSpace=wrap;html=1;boundedLbl=1;backgroundOutline=1;size=15;" vertex="1" parent="1">
          <mxGeometry x="203" y="500" width="60" height="80" as="geometry" />
        </mxCell>
        <mxCell id="zhqAr8tG6hQk_ShNSXF1-18" value="" style="edgeStyle=orthogonalEdgeStyle;rounded=0;orthogonalLoop=1;jettySize=auto;html=1;" edge="1" parent="1" source="zhqAr8tG6hQk_ShNSXF1-15" target="zhqAr8tG6hQk_ShNSXF1-17">
          <mxGeometry relative="1" as="geometry" />
        </mxCell>
        <mxCell id="zhqAr8tG6hQk_ShNSXF1-15" value="Subscription on statuses" style="whiteSpace=wrap;html=1;rounded=1;" vertex="1" parent="1">
          <mxGeometry x="563" y="240" width="120" height="60" as="geometry" />
        </mxCell>
        <mxCell id="zhqAr8tG6hQk_ShNSXF1-20" value="" style="edgeStyle=orthogonalEdgeStyle;rounded=0;orthogonalLoop=1;jettySize=auto;html=1;" edge="1" parent="1" source="zhqAr8tG6hQk_ShNSXF1-17" target="zhqAr8tG6hQk_ShNSXF1-19">
          <mxGeometry relative="1" as="geometry" />
        </mxCell>
        <mxCell id="zhqAr8tG6hQk_ShNSXF1-17" value="Reflecting order statuses in info panel" style="whiteSpace=wrap;html=1;rounded=1;" vertex="1" parent="1">
          <mxGeometry x="563" y="340" width="120" height="60" as="geometry" />
        </mxCell>
        <mxCell id="zhqAr8tG6hQk_ShNSXF1-22" value="" style="edgeStyle=orthogonalEdgeStyle;rounded=0;orthogonalLoop=1;jettySize=auto;html=1;" edge="1" parent="1" source="zhqAr8tG6hQk_ShNSXF1-19" target="zhqAr8tG6hQk_ShNSXF1-21">
          <mxGeometry relative="1" as="geometry" />
        </mxCell>
        <mxCell id="zhqAr8tG6hQk_ShNSXF1-19" value="Subscription on positions" style="whiteSpace=wrap;html=1;rounded=1;" vertex="1" parent="1">
          <mxGeometry x="563" y="450" width="120" height="60" as="geometry" />
        </mxCell>
        <mxCell id="zhqAr8tG6hQk_ShNSXF1-28" value="" style="edgeStyle=orthogonalEdgeStyle;rounded=0;orthogonalLoop=1;jettySize=auto;html=1;entryX=0;entryY=0.5;entryDx=0;entryDy=0;" edge="1" parent="1" source="zhqAr8tG6hQk_ShNSXF1-21" target="zhqAr8tG6hQk_ShNSXF1-11">
          <mxGeometry relative="1" as="geometry">
            <mxPoint x="513" y="170" as="targetPoint" />
            <Array as="points">
              <mxPoint x="503" y="570" />
              <mxPoint x="503" y="170" />
            </Array>
          </mxGeometry>
        </mxCell>
        <mxCell id="zhqAr8tG6hQk_ShNSXF1-21" value="Reflecting position statuses in position board" style="whiteSpace=wrap;html=1;rounded=1;" vertex="1" parent="1">
          <mxGeometry x="563" y="540" width="120" height="60" as="geometry" />
        </mxCell>
        <mxCell id="zhqAr8tG6hQk_ShNSXF1-29" value="" style="shape=flexArrow;endArrow=classic;html=1;rounded=0;" edge="1" parent="1">
          <mxGeometry width="50" height="50" relative="1" as="geometry">
            <mxPoint x="720" y="200" as="sourcePoint" />
            <mxPoint x="720" y="400" as="targetPoint" />
          </mxGeometry>
        </mxCell>
        <mxCell id="zhqAr8tG6hQk_ShNSXF1-30" value="Trade flow" style="edgeLabel;html=1;align=center;verticalAlign=middle;resizable=0;points=[];" vertex="1" connectable="0" parent="zhqAr8tG6hQk_ShNSXF1-29">
          <mxGeometry x="-0.2667" y="2" relative="1" as="geometry">
            <mxPoint x="38" y="17" as="offset" />
          </mxGeometry>
        </mxCell>
      </root>
    </mxGraphModel>
  </diagram>
</mxfile>
